<svg width="58" height="109" xmlns="http://www.w3.org/2000/svg">
 <metadata id="metadata8">image/svg+xml</metadata>

 <g>
  <title>background</title>
  <rect fill="none" id="canvas_background" height="111" width="60" y="-1" x="-1"/>
 </g>
 <g>
  <title>Layer 1</title>
  <g transform="matrix(0.41603846304620207,0,0,-0.47845211790058945,0.7789832616484986,107.13376897531717) " id="g10">
   <g transform="scale(0.20000000298023224) " id="g12">
    <path fill="#0a3470" fill-rule="evenodd" id="path14" d="m435.563,11.7578c-153.172,-2.76171 -274.516,-18.48436 -349.1372,104.7112c-32.6992,63.504 -24.6445,131.926 -78.42971,110.504c18.20701,19.558 33.68751,25.203 51.12501,13.89c-28.5898,66.004 -50.13282,167.297 25.2539,248.473c-33.125,-95.773 8.2148,-71.836 31.891,-171.27c0.39,84.594 -81.7777,112.563 41.429,278.286c-48.625,-79.161 8.223,-79.821 -11.195,-201.832c39.266,104.886 -49.5742,186.171 92.852,295.515c-26.762,-50.832 -14.704,-135.89 -33.782,-197.652c49.399,121.472 -18.047,172.965 137.727,290.125c-52.914,-72.172 -10.133,-97.996 -58.328,-180.207c82.961,99.117 0.461,174.418 153.824,258.578c-71.773,-79.711 -20.941,-107.84 -64.922,-170.246c72.027,61.719 -14.586,152.699 174.922,254.476c-62.484,-57.461 -42.488,-90.804 -74.867,-146.117c54.012,94.621 130.441,139.192 87.808,199.196c24.11,-16.051 46.914,-60.536 20.121,-98.411c50.422,18.18 136.715,185.753 50.84,190.833c1.301,0.02 15,-3.5 17.672,-11.49c2.778,-8.31 2.703,-16.37 2.168,-17.35c-3.242,-5.88 -8.113,-11.02 -13.945,-12.27c-23.457,-5.05 -31.895,15.2 -23.852,32.34c2.785,5.95 8.5,11.57 14.582,14.97c4.028,2.24 8.188,3.22 11.832,3.26c32.313,0.38 46.453,-32.15 46.141,-69.69c-0.512,-60.677 -49.648,-150.005 -127.637,-197.032c64.114,29.91 95.852,69.695 117.024,115.441c-13.641,-161.676 -191.957,-151.223 -263.985,-262.445c69.535,84.152 232.946,106.82 241.328,183.781c6.336,-94.359 -96.906,-161.125 -171.175,-183.781c-73.149,-25.203 -133.348,-55.664 -185.207,-113.207l-23.848,-26.465c64.164,54.156 108.273,93.945 194.16,114.523c60.41,14.477 98.375,26.446 128.547,80.196c-4.437,-24.184 -5.359,-47.184 -18.242,-68.278c-80.371,-131.57 -293.246,-77.922 -390.055,-274.933c31.719,38.457 52.598,69.496 93.613,98.16c68.938,48.14 170.571,49.34 234.43,97.273c-31.047,-88.254 -121.527,-136.433 -207.711,-163.41c-74.547,-25.629 -112.832,-27.168 -135.801,-123.461c48.746,137.992 148.684,61.106 222.27,145.27c-65.375,-173.352 -212.629,-60.571 -213.449,-256.489c23.957,156.973 119.465,105.524 151.781,161.36c9.359,-74.856 -40.961,-107.719 -89.797,-134.68c-78.484,-63.695 -28.324,-140.8749 21.004,-157.9803c-10.941,30.6015 -17.969,62.2343 3.023,90.2543c24.227,32.293 68.821,36.3 105.551,34.82c41.403,-1.664 73.613,-7.887 114.309,11.871c33.433,16.23 49.621,38.512 56.797,78.359c11.156,61.938 -55.61,101.446 -83.457,65.723c16.589,-3.109 26.277,-42.008 -4.211,-44.109c-18.309,-1.258 -28.332,14.89 -23.856,32.347c8.114,31.61 44.446,40.84 64.543,38.227c24.074,-3.133 50.781,-14.465 63.141,-38.227c19.09,-36.703 16.285,-75.136 -4.215,-110.269c-31.277,-53.606 -107.207,-57.344 -167.324,-47.047c-187.313,32.082 -126.926,-164.0236 46.719,-164.4142"/>
   </g>
  </g>
 </g>
</svg>