<?xml version="1.0" encoding="iso-8859-1"?>
<?xml-stylesheet type="text/css" href="../../style.css" ?>
<svg class="fi-svg" width="24" height="24" viewBox="0 0 32 24" xmlns="http://www.w3.org/2000/svg">
<path class="fi-path" fill="#173A56" fill-rule="evenodd" clip-rule="evenodd" d="m16 0c-8.836 0-16 11.844-16 11.844s7.164 12.156 16 12.156 16-12.156 16-12.156-7.164-11.844-16-11.844zm0 20c-4.418 0-8-3.582-8-8s3.582-8 8-8 8 3.582 8 8c0 4.418-3.582 8-8 8z"/><path d="m20 12.016c0 2.209-1.791 4-4 4s-4-1.791-4-4 1.791-4 4-4 4 1.791 4 4z"/></svg>